<svg width="238" height="30" viewBox="0 0 238 30" fill="none" xmlns="http://www.w3.org/2000/svg">
<path d="M235.018 6.17023C235.018 6.18035 235.016 6.18844 235.012 6.19593C235.007 6.20341 234.998 6.20968 234.983 6.21474C234.969 6.21909 234.949 6.22283 234.923 6.22536C234.897 6.22789 234.862 6.2292 234.819 6.2292C234.781 6.2292 234.75 6.22789 234.726 6.22536C234.702 6.22283 234.683 6.21909 234.668 6.21343C234.654 6.20776 234.643 6.20028 234.634 6.19016C234.626 6.18075 234.62 6.16821 234.614 6.15375L234.355 5.59155C234.325 5.52752 234.293 5.46916 234.26 5.41565C234.228 5.36224 234.189 5.31642 234.144 5.27748C234.099 5.23853 234.046 5.209 233.985 5.18705C233.924 5.1656 233.85 5.15498 233.765 5.15498H233.515V6.16993C233.515 6.18005 233.512 6.18814 233.505 6.19562C233.499 6.20311 233.488 6.20877 233.475 6.21322C233.461 6.21757 233.442 6.22142 233.418 6.22455C233.394 6.22769 233.364 6.2289 233.328 6.2289C233.291 6.2289 233.262 6.22759 233.237 6.22455C233.213 6.22142 233.194 6.21757 233.18 6.21322C233.165 6.20887 233.155 6.20311 233.149 6.19562C233.144 6.18864 233.141 6.17994 233.141 6.16993V3.96485C233.141 3.9171 233.156 3.88382 233.185 3.8644C233.215 3.84559 233.247 3.83618 233.28 3.83618H233.879C233.95 3.83618 234.009 3.8375 234.056 3.84053C234.103 3.84367 234.145 3.84751 234.183 3.85065C234.292 3.86693 234.388 3.89212 234.472 3.926C234.555 3.9605 234.625 4.00379 234.681 4.05659C234.738 4.10939 234.781 4.16968 234.809 4.23815C234.837 4.30603 234.851 4.38138 234.851 4.46362C234.851 4.54282 234.839 4.61433 234.813 4.67776C234.787 4.74057 234.751 4.79651 234.703 4.84486C234.655 4.89321 234.598 4.93529 234.531 4.97109C234.464 5.00619 234.39 5.03644 234.307 5.06081C234.354 5.07841 234.395 5.09986 234.433 5.12616C234.471 5.15246 234.506 5.18452 234.539 5.22093C234.571 5.25796 234.602 5.30074 234.631 5.34838C234.66 5.39613 234.689 5.45014 234.718 5.51043L234.971 6.0355C234.991 6.0795 235.004 6.11086 235.009 6.12846C235.015 6.14606 235.018 6.15982 235.018 6.16993V6.17023ZM234.455 4.49589C234.455 4.40293 234.43 4.32383 234.381 4.25909C234.332 4.19506 234.249 4.14853 234.133 4.12031C234.096 4.11151 234.055 4.10585 234.01 4.10211C233.964 4.09826 233.905 4.09644 233.83 4.09644H233.515V4.89907H233.88C233.979 4.89907 234.064 4.88896 234.136 4.86883C234.208 4.84809 234.268 4.81987 234.315 4.78406C234.363 4.74765 234.398 4.70496 234.421 4.65591C234.444 4.60695 234.455 4.55354 234.455 4.49579V4.49589Z" fill="#2B2A29"/>
<path d="M234.079 2.10229C235.035 2.10229 235.902 2.43033 236.529 2.96056C237.155 3.49079 237.543 4.22353 237.543 5.03273C237.543 5.84184 237.155 6.57457 236.529 7.1049C235.902 7.63514 235.035 7.96317 234.079 7.96317C233.122 7.96317 232.256 7.63514 231.629 7.1049C231.002 6.57457 230.614 5.84184 230.614 5.03273C230.614 4.22353 231.002 3.49079 231.629 2.96056C232.256 2.43033 233.122 2.10229 234.079 2.10229ZM236.289 3.16306C235.723 2.68462 234.942 2.38865 234.079 2.38865C233.216 2.38865 232.434 2.68462 231.868 3.16306C231.303 3.6415 230.953 4.30263 230.953 5.03273C230.953 5.76284 231.303 6.42396 231.868 6.9024C232.434 7.38084 233.216 7.67681 234.079 7.67681C234.942 7.67681 235.723 7.38084 236.289 6.9024C236.855 6.42386 237.205 5.76274 237.205 5.03273C237.205 4.30263 236.855 3.6415 236.289 3.16306Z" fill="#2B2A29"/>
<path d="M3 24.9999V9.60254H6.57184V24.9999H3ZM26.0452 24.9999L13.213 13.6532V24.9999H9.79989V9.60254H13.6364L26.1246 20.7477V9.60254H29.5642V24.9999H26.0452ZM36.2317 18.8677V24.9999H32.6599V9.60254H49.7519V12.6462H36.2318V16.1822H49.4609V18.8677H36.2318H36.2317ZM57.9804 24.9999C56.8691 24.9999 55.9519 24.9179 55.2286 24.7538C54.5054 24.5896 53.9234 24.3136 53.4825 23.9257C53.0415 23.5378 52.7328 23.0231 52.5564 22.3815C52.38 21.7399 52.2918 20.9491 52.2918 20.0092V14.5933C52.2918 13.6533 52.38 12.8626 52.5564 12.221C52.7328 11.5794 53.0416 11.0648 53.4825 10.6769C53.9234 10.2889 54.5055 10.0129 55.2286 9.84874C55.9519 9.68467 56.8691 9.60264 57.9804 9.60264H67.5846C68.6606 9.60264 69.5646 9.68467 70.2967 9.84874C71.0286 10.0129 71.6152 10.2889 72.0562 10.6769C72.4972 11.0648 72.8103 11.5794 72.9955 12.221C73.1808 12.8626 73.2733 13.6533 73.2733 14.5933V20.0092C73.2733 20.9491 73.1808 21.7399 72.9955 22.3815C72.8103 23.0231 72.4972 23.5378 72.0562 23.9257C71.6152 24.3136 71.0288 24.5896 70.2967 24.7538C69.5647 24.9179 68.6606 24.9999 67.5846 24.9999H57.9804ZM69.7014 14.6156C69.7014 13.8547 69.5427 13.3362 69.2252 13.0602C68.9077 12.7841 68.352 12.6462 67.5583 12.6462H57.9804C57.1866 12.6462 56.631 12.7842 56.3135 13.0602C55.996 13.3362 55.8373 13.8547 55.8373 14.6156V20.0316C55.8373 20.4195 55.8725 20.7365 55.9432 20.9827C56.0137 21.2289 56.1327 21.4267 56.3004 21.5758C56.4679 21.725 56.6884 21.8294 56.9618 21.8891C57.2351 21.9488 57.5748 21.9786 57.9805 21.9786H67.5584C68.3698 21.9786 68.9298 21.8444 69.2386 21.5758C69.5472 21.3073 69.7016 20.7925 69.7016 20.0317V14.6157L69.7014 14.6156ZM92.9317 24.9999L85.735 19.0244L78.8294 24.9999H74.0933L83.486 17.055L74.2521 9.60254H79.2263L85.8409 15.1751L92.3497 9.60254H97.2973L88.0899 17.2342L97.6148 25H92.9317V24.9999ZM104.124 24.9999C103.03 24.9999 102.122 24.9179 101.398 24.7538C100.675 24.5896 100.097 24.3173 99.6653 23.9369C99.2332 23.5565 98.9245 23.0455 98.7393 22.4039C98.5539 21.7624 98.4614 20.9641 98.4614 20.0092V14.5933C98.4614 13.6385 98.5539 12.8402 98.7393 12.1987C98.9245 11.5571 99.233 11.0423 99.6653 10.6544C100.097 10.2665 100.675 9.99419 101.398 9.83751C102.122 9.68083 103.03 9.60254 104.124 9.60254H114.336C115.007 9.60254 115.593 9.68083 116.096 9.83751C116.599 9.99419 117.026 10.1881 117.379 10.4193C117.732 10.6506 118.014 10.8969 118.226 11.1578C118.438 11.4189 118.596 11.654 118.702 11.8629L116.427 13.8323C116.268 13.5339 116.012 13.2616 115.659 13.0154C115.307 12.7692 114.786 12.6461 114.098 12.6461H104.15C103.356 12.6461 102.801 12.7879 102.483 13.0713C102.166 13.3548 102.007 13.8621 102.007 14.5932V20.0316C102.007 20.3598 102.033 20.6433 102.086 20.882C102.139 21.1207 102.241 21.3221 102.391 21.4861C102.541 21.6503 102.757 21.7734 103.039 21.8554C103.321 21.9375 103.691 21.9785 104.15 21.9785H114.231C114.936 21.9785 115.456 21.8554 115.792 21.6093C116.127 21.3631 116.374 21.0908 116.533 20.7924L118.808 22.7395C118.702 22.9484 118.543 23.1834 118.332 23.4444C118.12 23.7055 117.838 23.9518 117.485 24.183C117.132 24.4142 116.704 24.6082 116.202 24.7648C115.699 24.9215 115.113 24.9998 114.442 24.9998H104.124L104.124 24.9999ZM135.873 24.9999V18.644H125.026V24.9999H121.507V9.60254H125.026V15.8689H135.873V9.60254H139.392V24.9999H135.873ZM160.903 24.9999L158.628 21.4192H147.647L145.372 24.9999H141.297L151.272 9.60254H155.003L164.978 24.9999H160.903H160.903ZM153.151 12.6238L149.023 19.0021H157.278L153.151 12.6238H153.151ZM183.075 24.9999L170.243 13.6532V24.9999H166.83V9.60254H170.666L183.154 20.7477V9.60254H186.594V24.9999H183.075ZM206.649 24.9999L206.543 23.12C206.49 23.3439 206.372 23.5676 206.186 23.7915C206.001 24.0152 205.763 24.2167 205.472 24.3956C205.181 24.5747 204.832 24.7202 204.427 24.8321C204.021 24.944 203.562 24.9999 203.051 24.9999H195.325C194.196 24.9999 193.266 24.9216 192.534 24.7649C191.802 24.6082 191.224 24.3359 190.801 23.948C190.377 23.56 190.082 23.0491 189.914 22.415C189.747 21.7809 189.663 20.9789 189.663 20.0091V14.5932C189.663 13.6682 189.747 12.8886 189.914 12.2545C190.082 11.6204 190.377 11.1056 190.801 10.7103C191.224 10.3149 191.802 10.0314 192.534 9.85997C193.266 9.68831 194.196 9.60254 195.325 9.60254H204.559C205.229 9.60254 205.811 9.68083 206.305 9.83751C206.799 9.99419 207.222 10.1881 207.575 10.4193C207.928 10.6506 208.21 10.8969 208.422 11.1578C208.633 11.4189 208.792 11.654 208.898 11.8629L206.649 13.8323C206.473 13.5339 206.217 13.2616 205.882 13.0154C205.547 12.7692 205.026 12.6461 204.321 12.6461H195.352C194.523 12.6461 193.958 12.7804 193.658 13.0489C193.358 13.3175 193.208 13.8323 193.208 14.5931V19.5614C193.208 20.0985 193.239 20.5238 193.301 20.8371C193.363 21.1504 193.477 21.3929 193.645 21.5645C193.813 21.7361 194.033 21.8479 194.306 21.9001C194.58 21.9524 194.928 21.9784 195.352 21.9784H203.633C204.638 21.9784 205.335 21.8553 205.723 21.6092C206.111 21.363 206.305 21.0012 206.305 20.5238V18.5544H199.479V16.0479H209.665V24.9998H206.649V24.9999ZM212.735 24.9999V9.60254H230.224V12.6462H216.307V16.048H229.827V18.5321H216.307V21.9785H230.224V24.9998H212.735V24.9999Z" fill="#C54031"/>
<path d="M56.1411 5.44923C56.6677 5.72234 57.1159 5.91179 57.4852 6.02286C57.8524 6.1321 58.2118 6.18682 58.5629 6.18682C58.9161 6.18682 59.2006 6.12016 59.4166 5.98877C59.6306 5.85727 59.7374 5.68835 59.7374 5.4818C59.7374 5.18654 59.3561 4.85194 58.5911 4.48314C58.468 4.42336 58.3731 4.37552 58.3065 4.34315L57.7273 4.0666C57.1642 3.79694 56.7465 3.49136 56.476 3.15159C56.2036 2.81193 56.0684 2.42604 56.0684 1.99585C56.0684 1.412 56.3288 0.934067 56.8495 0.560214C57.3682 0.186361 58.0402 0.000244141 58.8636 0.000244141C59.1684 0.000244141 59.4974 0.0309939 59.8507 0.090774C60.2058 0.150554 60.5994 0.244422 61.0332 0.370759V2.06928C60.6196 1.8508 60.228 1.68177 59.8567 1.56231C59.4852 1.44275 59.1705 1.38307 58.91 1.38307C58.6215 1.38307 58.3955 1.43598 58.23 1.54016C58.0644 1.64425 57.9817 1.78768 57.9817 1.96692C57.9817 2.09325 58.0301 2.21099 58.129 2.32034C58.2279 2.4313 58.3753 2.53033 58.573 2.62075L59.5781 3.0902C60.4198 3.48458 60.9848 3.84812 61.2754 4.18111C61.566 4.51561 61.7113 4.91 61.7113 5.3675C61.7113 6.07424 61.4268 6.64615 60.8576 7.0815C60.2864 7.51675 59.5316 7.73362 58.5892 7.73362C58.2703 7.73362 57.9232 7.70459 57.5477 7.64825C57.1744 7.59191 56.7606 7.5032 56.3125 7.38364L56.1411 5.44953V5.44923Z" fill="#003087"/>
<path d="M36.125 7.49749L37.905 0.0100098H38.0523L41.2875 4.73193L44.3391 0.0100098H44.4925L46.2846 7.49749H44.3391L43.6125 4.18571L41.3117 7.76382H41.1744L38.7043 4.13625L37.9514 7.49749H36.125Z" fill="#003087"/>
<path d="M32.7822 7.49765V0.24585H34.8288V7.49765H32.7822Z" fill="#003087"/>
<path d="M23.1543 7.49765L26.2339 3.74708L23.1966 0.24585H25.6952L27.463 2.31661L29.124 0.24585H31.3521L28.5913 3.59687L31.9698 7.49765H29.4511L27.3683 5.03766L25.3945 7.49765H23.1543Z" fill="#003087"/>
<path d="M13.7871 7.49767L18.1606 0.0205078H18.2898L22.5663 7.49767H20.4251L19.8822 6.44267H16.4028L15.8478 7.49767H13.7871ZM16.9961 5.19305H19.2484L18.1364 2.92262L16.996 5.19305H16.9961Z" fill="#003087"/>
<path d="M3 7.49749L4.78012 0.0100098H4.92745L8.16255 4.73193L11.2141 0.0100098H11.3675L13.1597 7.49749H11.2141L10.4875 4.18571L8.18682 7.76382H8.04954L5.5793 4.13625L4.82652 7.49749H3Z" fill="#003087"/>
<path d="M49.4918 2.41731V4.21941C49.4918 4.85707 49.6316 5.33409 49.908 5.651C50.1845 5.96821 50.6034 6.12701 51.1661 6.12701C51.7069 6.12701 52.1199 5.97832 52.4043 5.68327C52.6885 5.38841 52.7703 4.95883 52.7641 4.39451L52.7421 2.41145L54.7439 2.40942L54.8127 4.2355C54.8519 5.27705 54.6887 6.35005 53.8856 6.95665C53.0351 7.59896 52.1953 7.7082 51.0716 7.7082C49.936 7.7082 49.053 7.41962 48.4224 6.84114C47.7928 6.26347 47.4492 5.40753 47.4492 4.36183V2.42106L49.4918 2.41721V2.41731Z" fill="#003087"/>
<path fill-rule="evenodd" clip-rule="evenodd" d="M47.4453 0.254883H49.4709V1.93398H47.4453V0.254883Z" fill="#C54031"/>
<path fill-rule="evenodd" clip-rule="evenodd" d="M52.7236 0.254883H54.7491V1.93398H52.7236V0.254883Z" fill="#C54031"/>
</svg>
