<svg width="237" height="30" viewBox="0 0 237 30" fill="none" xmlns="http://www.w3.org/2000/svg">
<path d="M234.018 6.17023C234.018 6.18035 234.016 6.18844 234.012 6.19593C234.007 6.20341 233.998 6.20968 233.983 6.21474C233.969 6.21909 233.949 6.22283 233.923 6.22536C233.897 6.22789 233.862 6.2292 233.819 6.2292C233.781 6.2292 233.75 6.22789 233.726 6.22536C233.702 6.22283 233.683 6.21909 233.668 6.21343C233.654 6.20776 233.643 6.20028 233.634 6.19016C233.626 6.18075 233.62 6.16821 233.614 6.15375L233.355 5.59155C233.325 5.52752 233.293 5.46916 233.26 5.41565C233.228 5.36224 233.189 5.31642 233.144 5.27748C233.099 5.23853 233.046 5.209 232.985 5.18705C232.924 5.1656 232.85 5.15498 232.765 5.15498H232.515V6.16993C232.515 6.18005 232.512 6.18814 232.505 6.19562C232.499 6.20311 232.488 6.20877 232.475 6.21322C232.461 6.21757 232.442 6.22142 232.418 6.22455C232.394 6.22769 232.364 6.2289 232.328 6.2289C232.291 6.2289 232.262 6.22759 232.237 6.22455C232.213 6.22142 232.194 6.21757 232.18 6.21322C232.165 6.20887 232.155 6.20311 232.149 6.19562C232.144 6.18864 232.141 6.17994 232.141 6.16993V3.96485C232.141 3.9171 232.156 3.88382 232.185 3.8644C232.215 3.84559 232.247 3.83618 232.28 3.83618H232.879C232.95 3.83618 233.009 3.8375 233.056 3.84053C233.103 3.84367 233.145 3.84751 233.183 3.85065C233.292 3.86693 233.388 3.89212 233.472 3.926C233.555 3.9605 233.625 4.00379 233.681 4.05659C233.738 4.10939 233.781 4.16968 233.809 4.23815C233.837 4.30603 233.851 4.38138 233.851 4.46362C233.851 4.54282 233.839 4.61433 233.813 4.67776C233.787 4.74057 233.751 4.79651 233.703 4.84486C233.655 4.89321 233.598 4.93529 233.531 4.97109C233.464 5.00619 233.39 5.03644 233.307 5.06081C233.354 5.07841 233.395 5.09986 233.433 5.12616C233.471 5.15246 233.506 5.18452 233.539 5.22093C233.571 5.25796 233.602 5.30074 233.631 5.34838C233.66 5.39613 233.689 5.45014 233.718 5.51043L233.971 6.0355C233.991 6.0795 234.004 6.11086 234.009 6.12846C234.015 6.14606 234.018 6.15982 234.018 6.16993V6.17023ZM233.455 4.49589C233.455 4.40293 233.43 4.32383 233.381 4.25909C233.332 4.19506 233.249 4.14853 233.133 4.12031C233.096 4.11151 233.055 4.10585 233.01 4.10211C232.964 4.09826 232.905 4.09644 232.83 4.09644H232.515V4.89907H232.88C232.979 4.89907 233.064 4.88896 233.136 4.86883C233.208 4.84809 233.268 4.81987 233.315 4.78406C233.363 4.74765 233.398 4.70496 233.421 4.65591C233.444 4.60695 233.455 4.55354 233.455 4.49579V4.49589Z" fill="#2B2A29"/>
<path d="M233.079 2.10229C234.035 2.10229 234.902 2.43033 235.529 2.96056C236.155 3.49079 236.543 4.22353 236.543 5.03273C236.543 5.84184 236.155 6.57457 235.529 7.1049C234.902 7.63514 234.035 7.96317 233.079 7.96317C232.122 7.96317 231.256 7.63514 230.629 7.1049C230.002 6.57457 229.614 5.84184 229.614 5.03273C229.614 4.22353 230.002 3.49079 230.629 2.96056C231.256 2.43033 232.122 2.10229 233.079 2.10229ZM235.289 3.16306C234.723 2.68462 233.942 2.38865 233.079 2.38865C232.216 2.38865 231.434 2.68462 230.868 3.16306C230.303 3.6415 229.953 4.30263 229.953 5.03273C229.953 5.76284 230.303 6.42396 230.868 6.9024C231.434 7.38084 232.216 7.67681 233.079 7.67681C233.942 7.67681 234.723 7.38084 235.289 6.9024C235.855 6.42386 236.205 5.76274 236.205 5.03273C236.205 4.30263 235.855 3.6415 235.289 3.16306Z" fill="#2B2A29"/>
<path d="M2 24.9999V9.60254H5.57184V24.9999H2ZM25.0452 24.9999L12.213 13.6532V24.9999H8.79989V9.60254H12.6364L25.1246 20.7477V9.60254H28.5642V24.9999H25.0452ZM35.2317 18.8677V24.9999H31.6599V9.60254H48.7519V12.6462H35.2318V16.1822H48.4609V18.8677H35.2318H35.2317ZM56.9804 24.9999C55.8691 24.9999 54.9519 24.9179 54.2286 24.7538C53.5054 24.5896 52.9234 24.3136 52.4825 23.9257C52.0415 23.5378 51.7328 23.0231 51.5564 22.3815C51.38 21.7399 51.2918 20.9491 51.2918 20.0092V14.5933C51.2918 13.6533 51.38 12.8626 51.5564 12.221C51.7328 11.5794 52.0416 11.0648 52.4825 10.6769C52.9234 10.2889 53.5055 10.0129 54.2286 9.84874C54.9519 9.68467 55.8691 9.60264 56.9804 9.60264H66.5846C67.6606 9.60264 68.5646 9.68467 69.2967 9.84874C70.0286 10.0129 70.6152 10.2889 71.0562 10.6769C71.4972 11.0648 71.8103 11.5794 71.9955 12.221C72.1808 12.8626 72.2733 13.6533 72.2733 14.5933V20.0092C72.2733 20.9491 72.1808 21.7399 71.9955 22.3815C71.8103 23.0231 71.4972 23.5378 71.0562 23.9257C70.6152 24.3136 70.0288 24.5896 69.2967 24.7538C68.5647 24.9179 67.6606 24.9999 66.5846 24.9999H56.9804ZM68.7014 14.6156C68.7014 13.8547 68.5427 13.3362 68.2252 13.0602C67.9077 12.7841 67.352 12.6462 66.5583 12.6462H56.9804C56.1866 12.6462 55.631 12.7842 55.3135 13.0602C54.996 13.3362 54.8373 13.8547 54.8373 14.6156V20.0316C54.8373 20.4195 54.8725 20.7365 54.9432 20.9827C55.0137 21.2289 55.1327 21.4267 55.3004 21.5758C55.4679 21.725 55.6884 21.8294 55.9618 21.8891C56.2351 21.9488 56.5748 21.9786 56.9805 21.9786H66.5584C67.3698 21.9786 67.9298 21.8444 68.2386 21.5758C68.5472 21.3073 68.7016 20.7925 68.7016 20.0317V14.6157L68.7014 14.6156ZM91.9317 24.9999L84.735 19.0244L77.8294 24.9999H73.0933L82.486 17.055L73.2521 9.60254H78.2263L84.8409 15.1751L91.3497 9.60254H96.2973L87.0899 17.2342L96.6148 25H91.9317V24.9999ZM103.124 24.9999C102.03 24.9999 101.122 24.9179 100.398 24.7538C99.6751 24.5896 99.0974 24.3173 98.6653 23.9369C98.2332 23.5565 97.9245 23.0455 97.7393 22.4039C97.5539 21.7624 97.4614 20.9641 97.4614 20.0092V14.5933C97.4614 13.6385 97.5539 12.8402 97.7393 12.1987C97.9245 11.5571 98.233 11.0423 98.6653 10.6544C99.0974 10.2665 99.6751 9.99419 100.398 9.83751C101.122 9.68083 102.03 9.60254 103.124 9.60254H113.336C114.007 9.60254 114.593 9.68083 115.096 9.83751C115.599 9.99419 116.026 10.1881 116.379 10.4193C116.732 10.6506 117.014 10.8969 117.226 11.1578C117.438 11.4189 117.596 11.654 117.702 11.8629L115.427 13.8323C115.268 13.5339 115.012 13.2616 114.659 13.0154C114.307 12.7692 113.786 12.6461 113.098 12.6461H103.15C102.356 12.6461 101.801 12.7879 101.483 13.0713C101.166 13.3548 101.007 13.8621 101.007 14.5932V20.0316C101.007 20.3598 101.033 20.6433 101.086 20.882C101.139 21.1207 101.241 21.3221 101.391 21.4861C101.541 21.6503 101.757 21.7734 102.039 21.8554C102.321 21.9375 102.691 21.9785 103.15 21.9785H113.231C113.936 21.9785 114.456 21.8554 114.792 21.6093C115.127 21.3631 115.374 21.0908 115.533 20.7924L117.808 22.7395C117.702 22.9484 117.543 23.1834 117.332 23.4444C117.12 23.7055 116.838 23.9518 116.485 24.183C116.132 24.4142 115.704 24.6082 115.202 24.7648C114.699 24.9215 114.113 24.9998 113.442 24.9998H103.124L103.124 24.9999ZM134.873 24.9999V18.644H124.026V24.9999H120.507V9.60254H124.026V15.8689H134.873V9.60254H138.392V24.9999H134.873ZM159.903 24.9999L157.628 21.4192H146.647L144.372 24.9999H140.297L150.272 9.60254H154.003L163.978 24.9999H159.903H159.903ZM152.151 12.6238L148.023 19.0021H156.278L152.151 12.6238H152.151ZM182.075 24.9999L169.243 13.6532V24.9999H165.83V9.60254H169.666L182.154 20.7477V9.60254H185.594V24.9999H182.075ZM205.649 24.9999L205.543 23.12C205.49 23.3439 205.372 23.5676 205.186 23.7915C205.001 24.0152 204.763 24.2167 204.472 24.3956C204.181 24.5747 203.832 24.7202 203.427 24.8321C203.021 24.944 202.562 24.9999 202.051 24.9999H194.325C193.196 24.9999 192.266 24.9216 191.534 24.7649C190.802 24.6082 190.224 24.3359 189.801 23.948C189.377 23.56 189.082 23.0491 188.914 22.415C188.747 21.7809 188.663 20.9789 188.663 20.0091V14.5932C188.663 13.6682 188.747 12.8886 188.914 12.2545C189.082 11.6204 189.377 11.1056 189.801 10.7103C190.224 10.3149 190.802 10.0314 191.534 9.85997C192.266 9.68831 193.196 9.60254 194.325 9.60254H203.559C204.229 9.60254 204.811 9.68083 205.305 9.83751C205.799 9.99419 206.222 10.1881 206.575 10.4193C206.928 10.6506 207.21 10.8969 207.422 11.1578C207.633 11.4189 207.792 11.654 207.898 11.8629L205.649 13.8323C205.473 13.5339 205.217 13.2616 204.882 13.0154C204.547 12.7692 204.026 12.6461 203.321 12.6461H194.352C193.523 12.6461 192.958 12.7804 192.658 13.0489C192.358 13.3175 192.208 13.8323 192.208 14.5931V19.5614C192.208 20.0985 192.239 20.5238 192.301 20.8371C192.363 21.1504 192.477 21.3929 192.645 21.5645C192.813 21.7361 193.033 21.8479 193.306 21.9001C193.58 21.9524 193.928 21.9784 194.352 21.9784H202.633C203.638 21.9784 204.335 21.8553 204.723 21.6092C205.111 21.363 205.305 21.0012 205.305 20.5238V18.5544H198.479V16.0479H208.665V24.9998H205.649V24.9999ZM211.735 24.9999V9.60254H229.224V12.6462H215.307V16.048H228.827V18.5321H215.307V21.9785H229.224V24.9998H211.735V24.9999Z" fill="#FF5C49"/>
<path d="M55.1411 5.44923C55.6677 5.72234 56.1159 5.91179 56.4852 6.02286C56.8524 6.1321 57.2118 6.18682 57.5629 6.18682C57.9161 6.18682 58.2006 6.12016 58.4166 5.98877C58.6306 5.85727 58.7374 5.68835 58.7374 5.4818C58.7374 5.18654 58.3561 4.85194 57.5911 4.48314C57.468 4.42336 57.3731 4.37552 57.3065 4.34315L56.7273 4.0666C56.1642 3.79694 55.7465 3.49136 55.476 3.15159C55.2036 2.81193 55.0684 2.42604 55.0684 1.99585C55.0684 1.412 55.3288 0.934067 55.8495 0.560214C56.3682 0.186361 57.0402 0.000244141 57.8636 0.000244141C58.1684 0.000244141 58.4974 0.0309939 58.8507 0.090774C59.2058 0.150554 59.5994 0.244422 60.0332 0.370759V2.06928C59.6196 1.8508 59.228 1.68177 58.8567 1.56231C58.4852 1.44275 58.1705 1.38307 57.91 1.38307C57.6215 1.38307 57.3955 1.43598 57.23 1.54016C57.0644 1.64425 56.9817 1.78768 56.9817 1.96692C56.9817 2.09325 57.0301 2.21099 57.129 2.32034C57.2279 2.4313 57.3753 2.53033 57.573 2.62075L58.5781 3.0902C59.4198 3.48458 59.9848 3.84812 60.2754 4.18111C60.566 4.51561 60.7113 4.91 60.7113 5.3675C60.7113 6.07424 60.4268 6.64615 59.8576 7.0815C59.2864 7.51675 58.5316 7.73362 57.5892 7.73362C57.2703 7.73362 56.9232 7.70459 56.5477 7.64825C56.1744 7.59191 55.7606 7.5032 55.3125 7.38364L55.1411 5.44953V5.44923Z" fill="#1669FE"/>
<path d="M35.125 7.49749L36.905 0.0100098H37.0523L40.2875 4.73193L43.3391 0.0100098H43.4925L45.2846 7.49749H43.3391L42.6125 4.18571L40.3117 7.76382H40.1744L37.7043 4.13625L36.9514 7.49749H35.125Z" fill="#1669FE"/>
<path d="M31.7822 7.49765V0.24585H33.8288V7.49765H31.7822Z" fill="#1669FE"/>
<path d="M22.1543 7.49765L25.2339 3.74708L22.1966 0.24585H24.6952L26.463 2.31661L28.124 0.24585H30.3521L27.5913 3.59687L30.9698 7.49765H28.4511L26.3683 5.03766L24.3945 7.49765H22.1543Z" fill="#1669FE"/>
<path d="M12.7871 7.49767L17.1606 0.0205078H17.2898L21.5663 7.49767H19.4251L18.8822 6.44267H15.4028L14.8478 7.49767H12.7871ZM15.9961 5.19305H18.2484L17.1364 2.92262L15.996 5.19305H15.9961Z" fill="#1669FE"/>
<path d="M2 7.49749L3.78012 0.0100098H3.92745L7.16255 4.73193L10.2141 0.0100098H10.3675L12.1597 7.49749H10.2141L9.48749 4.18571L7.18682 7.76382H7.04954L4.5793 4.13625L3.82652 7.49749H2Z" fill="#1669FE"/>
<path d="M48.4918 2.41731V4.21941C48.4918 4.85707 48.6316 5.33409 48.908 5.651C49.1845 5.96821 49.6034 6.12701 50.1661 6.12701C50.7069 6.12701 51.1199 5.97832 51.4043 5.68327C51.6885 5.38841 51.7703 4.95883 51.7641 4.39451L51.7421 2.41145L53.7439 2.40942L53.8127 4.2355C53.8519 5.27705 53.6887 6.35005 52.8856 6.95665C52.0351 7.59896 51.1953 7.7082 50.0716 7.7082C48.936 7.7082 48.053 7.41962 47.4224 6.84114C46.7928 6.26347 46.4492 5.40753 46.4492 4.36183V2.42106L48.4918 2.41721V2.41731Z" fill="#1669FE"/>
<path fill-rule="evenodd" clip-rule="evenodd" d="M46.4453 0.254883H48.4709V1.93398H46.4453V0.254883Z" fill="#FF5C49"/>
<path fill-rule="evenodd" clip-rule="evenodd" d="M51.7236 0.254883H53.7491V1.93398H51.7236V0.254883Z" fill="#FF5C49"/>
</svg>
